<svg width="99" height="117" viewBox="0 0 99 117" fill="none" xmlns="http://www.w3.org/2000/svg">
<path fill-rule="evenodd" clip-rule="evenodd" d="M72.654 91.046C83.6525 93.5815 90.884 97.8721 90.884 102.739C90.884 110.53 72.3561 116.846 49.5006 116.846C26.6452 116.846 8.11719 110.53 8.11719 102.739C8.11719 95.2728 25.1296 89.1629 46.6592 88.665L46.9256 92.7757C29.0378 93.1565 14.9348 97.4708 14.9348 102.739C14.9348 108.257 30.4099 112.73 49.5001 112.73C68.5902 112.73 84.0654 108.257 84.0654 102.739C84.0654 99.1683 77.5848 96.0364 67.8388 94.2697C69.5078 93.1628 71.1722 92.0459 72.654 91.046Z" fill="black"/>
<path fill-rule="evenodd" clip-rule="evenodd" d="M49.5001 98.6721C56.0894 98.6721 61.431 100.493 61.431 102.739C61.431 104.986 56.0894 106.806 49.5001 106.806C42.9109 106.806 37.5693 104.985 37.5693 102.739C37.5693 100.493 42.9109 98.6721 49.5001 98.6721Z" fill="black"/>
<mask id="mask0_11_97" style="mask-type:luminance" maskUnits="userSpaceOnUse" x="33" y="0" width="66" height="103">
<path d="M82.6293 23.9595C80.9982 19.4854 77.8204 15.4106 73.3305 12.7744C72.5374 12.3087 71.7458 11.8916 70.9595 11.5193C65.6644 7.05207 59.7554 3.19501 53.3265 0.72595C75.8539 -3.75549 92.3932 13.5986 96.5809 25.7093C96.9606 26.8067 97.2807 27.9162 97.5433 29.0326C98.259 32.076 98.5469 35.1721 98.4425 38.2323C98.4425 38.2323 100.259 74.1154 49.4995 102.755L33.2755 79.0594H33.2744C45.7452 73.5111 64.5142 63.7166 75.3534 51.1282C81.8736 43.5564 86.1699 33.6717 82.6293 23.9595Z" fill="white"/>
</mask>
<g mask="url(#mask0_11_97)">
<path d="M100.26 -3.755H33.2754V102.756H100.26V-3.755Z" fill="url(#paint0_linear_11_97)"/>
</g>
<mask id="mask1_11_97" style="mask-type:luminance" maskUnits="userSpaceOnUse" x="0" y="0" width="76" height="103">
<path d="M16.371 23.9596C18.0021 19.4856 21.18 15.4113 25.6698 12.7745C37.9698 5.55348 49.7936 10.0766 49.7936 10.0766C37.8111 6.26329 14.0022 16.5092 21.7738 29.1941C30.6011 43.6014 48.7389 21.8951 52.8095 19.4408C55.8165 17.6272 58.969 16.7834 61.9316 16.4997C69.2123 15.8031 75.3459 18.4889 75.3459 18.4889C64.9977 8.09637 55.1805 2.76536 46.2798 0.848437C23.4428 -4.07018 6.64509 13.4906 2.41942 25.7105C2.03972 26.8079 1.71962 27.9174 1.457 29.0338C0.741383 32.0772 0.453452 35.1727 0.557868 38.2335C0.557868 38.2335 -1.25886 74.1166 49.5009 102.757L65.7249 79.0606H65.7259C53.2551 73.5128 34.4856 63.7178 23.6469 51.1294C17.1267 43.556 12.8304 33.6714 16.371 23.9596Z" fill="white"/>
</mask>
<g mask="url(#mask1_11_97)">
<path d="M75.345 -4.0708H-1.25977V102.755H75.345V-4.0708Z" fill="url(#paint1_linear_11_97)"/>
</g>
<path opacity="0.3" fill-rule="evenodd" clip-rule="evenodd" d="M49.3843 9.93558C49.6089 10.0084 49.7439 10.0574 49.7819 10.0722C49.7429 10.0569 49.6063 10.0062 49.3843 9.93558ZM8.48494 34.0899C8.52186 34.141 8.55983 34.189 8.59727 34.2391C8.90999 16.6915 22.5948 6.75987 35.5539 5.24848C49.0209 3.6775 61.814 11.3927 61.814 11.3927C56.3965 11.5287 49.5256 14.7593 38.9764 22.11C28.4273 29.4608 21.8059 21.4371 32.0186 15.3768C42.2307 9.317 49.794 10.0764 49.794 10.0764C37.8115 6.2631 14.0026 16.509 21.7742 29.194C30.6016 43.6012 48.7393 21.8949 52.8099 19.4406C55.8169 17.627 58.9694 16.7833 61.9321 16.4995C69.2127 15.8029 75.3464 18.4887 75.3464 18.4887C64.9981 8.09618 55.1809 2.76518 46.2808 0.847723C23.4438 -4.07036 6.64554 13.4905 2.42039 25.7097C2.0407 26.8072 1.7206 27.9167 1.45798 29.0331C0.742359 32.0765 0.454429 35.172 0.558845 38.2328C0.558845 38.2328 0.37216 41.9743 1.82238 48.0009C1.61249 46.972 -1.9155 28.8902 7.4487 18.4544C17.0892 7.71068 11.7461 18.861 10.4103 21.242C9.07505 23.623 1.48065 35.7479 15.3537 55.5863L15.3579 55.5921C12.1226 50.7379 9.8202 45.7322 8.88573 40.7229C8.47176 38.508 8.32568 36.2932 8.48494 34.0899Z" fill="white"/>
<path opacity="0.3" fill-rule="evenodd" clip-rule="evenodd" d="M49.7408 80.4705C37.4292 74.2029 20.1684 63.0589 12.5878 47.1181C6.37397 34.0513 9.96998 22.6057 17.1894 14.9206C21.0776 10.7814 26.0168 7.73383 31.0409 6.11169C25.2268 7.66316 19.5963 10.8953 15.4286 15.7364C12.66 18.9522 10.5374 22.8773 9.43366 27.49C8.93004 29.5968 8.63894 31.847 8.59623 34.2391C8.55931 34.1885 8.52134 34.141 8.4839 34.0898C8.32464 36.2931 8.47072 38.5085 8.88364 40.7223C11.041 52.2882 20.4891 63.8341 31.8815 73.5468C35.9009 76.9736 42.0841 81.2968 48.3438 85.3479C53.5725 88.7314 58.7448 92.0495 62.6556 94.4221C65.3773 92.4672 67.9376 90.449 70.4815 88.2663C63.9023 85.9786 53.2862 82.2761 49.7408 80.4705Z" fill="#00463C"/>
<path opacity="0.3" fill-rule="evenodd" clip-rule="evenodd" d="M49.3843 9.93558C49.6089 10.0084 49.7439 10.0574 49.7819 10.0722C49.7429 10.0569 49.6063 10.0062 49.3843 9.93558ZM8.48494 34.0899C8.52186 34.141 8.55983 34.189 8.59727 34.2391C8.90999 16.6915 22.5948 6.75987 35.5539 5.24848C49.0209 3.6775 61.814 11.3927 61.814 11.3927C56.3965 11.5287 49.5256 14.7593 38.9764 22.11C28.4273 29.4608 21.8059 21.4371 32.0186 15.3768C42.2307 9.317 49.794 10.0764 49.794 10.0764C37.8115 6.2631 14.0026 16.509 21.7742 29.194C30.6016 43.6012 48.7393 21.8949 52.8099 19.4406C55.8169 17.627 58.9694 16.7833 61.9321 16.4995C69.2127 15.8029 75.3464 18.4887 75.3464 18.4887C64.9981 8.09618 55.1809 2.76518 46.2808 0.847723C23.4438 -4.07036 6.64554 13.4905 2.42039 25.7097C2.0407 26.8072 1.7206 27.9167 1.45798 29.0331C0.742359 32.0765 0.454429 35.172 0.558845 38.2328C0.558845 38.2328 -1.25789 74.1159 49.5019 102.756C50.8487 101.975 53.2329 100.611 55.567 99.1477C58.7242 97.1686 61.8393 95.0555 62.6314 94.4063C52.2921 88.114 37.9766 78.7413 31.8841 73.5474C20.4917 63.8352 11.0437 52.2888 8.88626 40.7235C8.47176 38.508 8.32568 36.2932 8.48494 34.0899Z" fill="white"/>
<defs>
<linearGradient id="paint0_linear_11_97" x1="74.4546" y1="46.6356" x2="74.4546" y2="135.889" gradientUnits="userSpaceOnUse">
<stop stop-color="#EDB82C"/>
<stop offset="0.77" stop-color="#1A85F8"/>
</linearGradient>
<linearGradient id="paint1_linear_11_97" x1="43.5209" y1="-23.4625" x2="29.3041" y2="136.312" gradientUnits="userSpaceOnUse">
<stop stop-color="#EDB82C"/>
<stop offset="0.305" stop-color="#FFC700"/>
<stop offset="0.755" stop-color="#1A85F8"/>
</linearGradient>
</defs>
</svg>
