<svg width="49" height="49" viewBox="0 0 49 49" fill="none" xmlns="http://www.w3.org/2000/svg">
<path d="M37.5667 15.0653C37.1974 14.96 36.8603 14.7639 36.586 14.4951C36.3118 14.2262 36.1092 13.893 35.9966 13.5259C35.3714 11.4067 34.3227 9.43646 32.9141 7.73429C31.5054 6.03212 29.766 4.63345 27.8012 3.62291C25.8364 2.61238 23.6869 2.01099 21.483 1.85514C19.279 1.69929 17.0663 1.99222 14.9789 2.7162C12.8914 3.44018 10.9725 4.58017 9.3383 6.06717C7.70411 7.55417 6.38861 9.35727 5.4714 11.3674C4.55419 13.3774 4.05434 15.5527 4.00209 17.7616C3.94985 19.9704 4.34629 22.1669 5.16745 24.2181C5.35609 24.6498 5.3967 25.1317 5.28297 25.5889C5.16923 26.046 4.90753 26.4527 4.53861 26.7457C2.91289 27.9523 1.64362 29.576 0.865146 31.4449C0.0866699 33.3138 -0.172052 35.3584 0.116362 37.3624C0.566454 40.0714 1.9729 42.5293 4.08043 44.2899C6.18795 46.0506 8.85687 46.9973 11.6028 46.9582H22.4583C22.9998 46.9582 23.5191 46.7431 23.902 46.3602C24.2849 45.9773 24.5 45.458 24.5 44.9165C24.5 44.375 24.2849 43.8557 23.902 43.4728C23.5191 43.09 22.9998 42.8749 22.4583 42.8749H11.6028C9.83935 42.9176 8.11894 42.3273 6.75333 41.2108C5.38773 40.0942 4.4673 38.5254 4.15886 36.7886C3.96327 35.5121 4.12179 34.2063 4.61716 33.0136C5.11253 31.8209 5.92574 30.787 6.9682 30.0246C8.06318 29.2062 8.85528 28.0473 9.22002 26.7298C9.58477 25.4124 9.50151 24.0111 8.98332 22.7461C7.95872 20.0402 7.90603 17.0625 8.83428 14.3221C9.57581 12.1755 10.9037 10.2794 12.6675 8.84866C14.4313 7.41792 16.5605 6.50972 18.8139 6.22694C19.3367 6.15964 19.8631 6.12555 20.3901 6.12485C23.0301 6.11615 25.6019 6.96281 27.7204 8.53809C29.8389 10.1134 31.3902 12.3325 32.1419 14.8632C32.4354 15.8276 32.9641 16.7039 33.6805 17.4131C34.3969 18.1224 35.2784 18.6423 36.2457 18.9261C38.613 19.6262 40.7099 21.0328 42.2558 22.9576C43.8016 24.8824 44.7225 27.2335 44.8953 29.6961C45.068 32.1587 44.4844 34.6153 43.2224 36.737C41.9605 38.8588 40.0805 40.5444 37.8341 41.5682C37.5017 41.7384 37.2237 41.9986 37.032 42.3192C36.8404 42.6398 36.7426 43.0078 36.75 43.3812C36.746 43.719 36.827 44.0525 36.9854 44.3509C37.1438 44.6493 37.3747 44.9031 37.6568 45.0891C37.9389 45.275 38.2632 45.3871 38.5999 45.4151C38.9366 45.4431 39.2749 45.3861 39.5838 45.2493C48.0241 41.1925 52.6097 30.5207 45.4638 20.2103C43.4963 17.6438 40.7094 15.8281 37.5667 15.0653Z" fill="white"/>
<path d="M38.1934 34.1097C38.5762 33.7269 38.7912 33.2076 38.7912 32.6663C38.7912 32.1249 38.5762 31.6057 38.1934 31.2228L34.9554 27.9847C33.8067 26.8365 32.2491 26.1914 30.625 26.1914C29.0008 26.1914 27.4432 26.8365 26.2946 27.9847L23.0565 31.2228C22.6846 31.6079 22.4788 32.1236 22.4835 32.6589C22.4881 33.1942 22.7028 33.7063 23.0814 34.0849C23.4599 34.4634 23.972 34.6781 24.5073 34.6828C25.0426 34.6874 25.5584 34.4816 25.9434 34.1097L28.5833 31.4698V46.9579C28.5833 47.4994 28.7984 48.0187 29.1813 48.4016C29.5642 48.7845 30.0835 48.9996 30.625 48.9996C31.1665 48.9996 31.6858 48.7845 32.0687 48.4016C32.4515 48.0187 32.6666 47.4994 32.6666 46.9579V31.4698L35.3065 34.1097C35.6894 34.4925 36.2086 34.7075 36.75 34.7075C37.2914 34.7075 37.8106 34.4925 38.1934 34.1097Z" fill="white"/>
</svg>
